<svg width="18" height="18" viewBox="0 0 18 18" fill="none" xmlns="http://www.w3.org/2000/svg">
<path d="M16.416 0.664062H1.58268C1.33957 0.664063 1.10641 0.76064 0.934501 0.932548C0.762593 1.10446 0.666016 1.33761 0.666016 1.58073V16.4141C0.666016 16.6572 0.762593 16.8903 0.934501 17.0622C1.10641 17.2342 1.33957 17.3307 1.58268 17.3307H9.56602V10.8724H7.39935V8.3724H9.56602V6.4974C9.52113 6.05719 9.5731 5.6125 9.71828 5.19451C9.86345 4.77652 10.0983 4.39535 10.4064 4.07774C10.7145 3.76013 11.0883 3.51376 11.5017 3.35593C11.9151 3.19809 12.358 3.13261 12.7993 3.16406C13.448 3.16007 14.0963 3.19346 14.741 3.26406V5.51406H13.416C12.366 5.51406 12.166 6.01406 12.166 6.73906V8.3474H14.666L14.341 10.8474H12.166V17.3307H16.416C16.5364 17.3307 16.6556 17.307 16.7668 17.261C16.878 17.2149 16.9791 17.1474 17.0642 17.0622C17.1493 16.9771 17.2168 16.8761 17.2629 16.7649C17.309 16.6536 17.3327 16.5344 17.3327 16.4141V1.58073C17.3327 1.46035 17.309 1.34115 17.2629 1.22994C17.2168 1.11872 17.1493 1.01767 17.0642 0.932548C16.9791 0.847428 16.878 0.779906 16.7668 0.73384C16.6556 0.687773 16.5364 0.664062 16.416 0.664062Z" fill="#004E6B"/>
</svg>
