<svg width="20" height="20" viewBox="0 0 20 20" fill="none" xmlns="http://www.w3.org/2000/svg">
<path d="M17.4165 1.66406H2.58317C2.34006 1.66406 2.1069 1.76064 1.93499 1.93255C1.76308 2.10446 1.6665 2.33761 1.6665 2.58073V17.4141C1.6665 17.6572 1.76308 17.8903 1.93499 18.0622C2.1069 18.2342 2.34006 18.3307 2.58317 18.3307H10.5665V11.8724H8.39984V9.3724H10.5665V7.4974C10.5216 7.05719 10.5736 6.6125 10.7188 6.19451C10.8639 5.77652 11.0988 5.39535 11.4069 5.07774C11.715 4.76013 12.0888 4.51376 12.5022 4.35593C12.9156 4.19809 13.3585 4.13261 13.7998 4.16406C14.4484 4.16007 15.0967 4.19346 15.7415 4.26406V6.51406H14.4165C13.3665 6.51406 13.1665 7.01406 13.1665 7.73906V9.3474H15.6665L15.3415 11.8474H13.1665V18.3307H17.4165C17.5369 18.3307 17.6561 18.307 17.7673 18.261C17.8785 18.2149 17.9796 18.1474 18.0647 18.0622C18.1498 17.9771 18.2173 17.8761 18.2634 17.7649C18.3095 17.6536 18.3332 17.5344 18.3332 17.4141V2.58073C18.3332 2.46035 18.3095 2.34115 18.2634 2.22994C18.2173 2.11872 18.1498 2.01767 18.0647 1.93255C17.9796 1.84743 17.8785 1.77991 17.7673 1.73384C17.6561 1.68777 17.5369 1.66406 17.4165 1.66406Z" fill="white"/>
</svg>
