<svg width="66" height="28" viewBox="0 0 66 28" fill="none" xmlns="http://www.w3.org/2000/svg">
<g clip-path="url(#clip0_3009_7399)">
<path d="M37.5068 0.0406603C37.5068 0.0406603 35.7443 -0.239731 33.3009 1.24234C31.7788 2.16362 31.218 2.04345 30.9776 1.80312C30.8575 1.60284 30.5771 1.6429 30.497 1.84318C30.3768 2.12357 30.4569 2.52413 31.3382 3.08491C33.0205 4.12636 36.3451 4.60703 39.0689 4.16642C41.7927 3.7258 43.1146 3.76586 43.1146 3.76586C43.1146 3.76586 43.4751 3.04485 42.5137 2.52413C41.5524 2.04345 38.8687 -0.0795074 37.5068 0.0406603Z" fill="#A8D8F4"/>
<path d="M19.1207 7.89059C21.7644 6.00797 24.9288 4.56595 28.3336 4.64607C28.5739 4.64607 28.8142 4.64607 29.0546 4.60601C29.9758 4.5259 32.7397 4.60601 36.3047 8.21104C40.6307 12.6172 43.675 9.21244 43.8752 9.01216C44.0355 8.85193 47.9609 7.08948 50.9251 9.73316C50.9651 9.77322 50.9651 9.77322 51.0052 9.81328C52.9279 11.5357 52.1268 14.7001 49.6032 15.3009C44.5962 16.4225 36.9856 17.3438 29.4952 15.2208C26.0504 14.2194 23.1663 13.7788 20.803 13.6987C17.7989 13.4984 16.6773 9.65305 19.1207 7.89059Z" fill="#788982"/>
<path d="M6.82422 20.6292C6.82422 20.6292 15.0357 16.3432 28.3342 17.3046C41.5927 18.306 49.2835 20.469 57.0543 17.3046C57.0543 17.3046 53.1689 21.7908 26.1712 20.9096C26.1712 20.9096 8.66679 20.2687 6.82422 20.6292Z" fill="#5CAE46"/>
<path d="M0.535156 24.5927C0.535156 24.5927 19.5217 23.4712 26.4914 22.6701C33.4611 21.8689 63.1425 23.9919 65.3055 24.7129C67.4686 25.4339 43.435 24.9933 36.986 26.4353C30.5771 27.8773 5.38192 27.1563 0.535156 24.5927Z" fill="#2791D0"/>
</g>
<defs>
<clipPath id="clip0_3009_7399">
<rect width="64.9306" height="27.1579" fill="white" transform="translate(0.535156)"/>
</clipPath>
</defs>
</svg>
