<svg width="18" height="18" viewBox="0 0 18 18" fill="none" xmlns="http://www.w3.org/2000/svg">
<path fill-rule="evenodd" clip-rule="evenodd" d="M16.0585 0.664179H1.9418C1.78311 0.661975 1.62555 0.691052 1.4781 0.749749C1.33066 0.808446 1.19622 0.895613 1.08246 1.00627C0.968707 1.11693 0.877865 1.24892 0.815123 1.39469C0.752382 1.54046 0.718971 1.69716 0.716797 1.85585V16.1392C0.718971 16.2979 0.752382 16.4546 0.815123 16.6003C0.877865 16.7461 0.968707 16.8781 1.08246 16.9888C1.19622 17.0994 1.33066 17.1866 1.4781 17.2453C1.62555 17.304 1.78311 17.333 1.9418 17.3308H16.0585C16.2171 17.333 16.3747 17.304 16.5222 17.2453C16.6696 17.1866 16.804 17.0994 16.9178 16.9888C17.0316 16.8781 17.1224 16.7461 17.1851 16.6003C17.2479 16.4546 17.2813 16.2979 17.2835 16.1392V1.85585C17.2813 1.69716 17.2479 1.54046 17.1851 1.39469C17.1224 1.24892 17.0316 1.11693 16.9178 1.00627C16.804 0.895613 16.6696 0.808446 16.5222 0.749749C16.3747 0.691052 16.2171 0.661975 16.0585 0.664179ZM14.5 5.24805C14.5 5.9384 13.9404 6.49805 13.25 6.49805C12.5596 6.49805 12 5.9384 12 5.24805C12 4.55769 12.5596 3.99805 13.25 3.99805C13.9404 3.99805 14.5 4.55769 14.5 5.24805ZM9 12.748C11.0711 12.748 12.75 11.0691 12.75 8.99805C12.75 6.92698 11.0711 5.24805 9 5.24805C6.92893 5.24805 5.25 6.92698 5.25 8.99805C5.25 11.0691 6.92893 12.748 9 12.748ZM8.99984 11.0807C10.1504 11.0807 11.0832 10.148 11.0832 8.9974C11.0832 7.8468 10.1504 6.91406 8.99984 6.91406C7.84924 6.91406 6.9165 7.8468 6.9165 8.9974C6.9165 10.148 7.84924 11.0807 8.99984 11.0807Z" fill="#004E6B"/>
</svg>
