<svg width="20" height="20" viewBox="0 0 20 20" fill="none" xmlns="http://www.w3.org/2000/svg">
<path fill-rule="evenodd" clip-rule="evenodd" d="M17.0585 1.66418H2.9418C2.78311 1.66198 2.62555 1.69105 2.4781 1.74975C2.33066 1.80845 2.19622 1.89561 2.08246 2.00627C1.96871 2.11693 1.87786 2.24892 1.81512 2.39469C1.75238 2.54046 1.71897 2.69716 1.7168 2.85585V17.1392C1.71897 17.2979 1.75238 17.4546 1.81512 17.6003C1.87786 17.7461 1.96871 17.8781 2.08246 17.9888C2.19622 18.0994 2.33066 18.1866 2.4781 18.2453C2.62555 18.304 2.78311 18.333 2.9418 18.3308H17.0585C17.2171 18.333 17.3747 18.304 17.5222 18.2453C17.6696 18.1866 17.804 18.0994 17.9178 17.9888C18.0316 17.8781 18.1224 17.7461 18.1851 17.6003C18.2479 17.4546 18.2813 17.2979 18.2835 17.1392V2.85585C18.2813 2.69716 18.2479 2.54046 18.1851 2.39469C18.1224 2.24892 18.0316 2.11693 17.9178 2.00627C17.804 1.89561 17.6696 1.80845 17.5222 1.74975C17.3747 1.69105 17.2171 1.66198 17.0585 1.66418ZM15.5 6.24805C15.5 6.9384 14.9404 7.49805 14.25 7.49805C13.5596 7.49805 13 6.9384 13 6.24805C13 5.55769 13.5596 4.99805 14.25 4.99805C14.9404 4.99805 15.5 5.55769 15.5 6.24805ZM10 13.748C12.0711 13.748 13.75 12.0691 13.75 9.99805C13.75 7.92698 12.0711 6.24805 10 6.24805C7.92893 6.24805 6.25 7.92698 6.25 9.99805C6.25 12.0691 7.92893 13.748 10 13.748ZM9.99984 12.0807C11.1504 12.0807 12.0832 11.148 12.0832 9.9974C12.0832 8.8468 11.1504 7.91406 9.99984 7.91406C8.84924 7.91406 7.9165 8.8468 7.9165 9.9974C7.9165 11.148 8.84924 12.0807 9.99984 12.0807Z" fill="white"/>
</svg>
