<svg width="18" height="18" viewBox="0 0 18 18" fill="none" xmlns="http://www.w3.org/2000/svg">
<path d="M16.0585 0.664179H1.9418C1.78311 0.661975 1.62555 0.691052 1.4781 0.749749C1.33066 0.808446 1.19622 0.895613 1.08246 1.00627C0.968707 1.11693 0.877865 1.24892 0.815123 1.39469C0.752382 1.54046 0.718971 1.69716 0.716797 1.85585V16.1392C0.718971 16.2979 0.752382 16.4546 0.815123 16.6003C0.877865 16.7461 0.968707 16.8781 1.08246 16.9888C1.19622 17.0994 1.33066 17.1866 1.4781 17.2453C1.62555 17.304 1.78311 17.333 1.9418 17.3308H16.0585C16.2171 17.333 16.3747 17.304 16.5222 17.2453C16.6696 17.1866 16.804 17.0994 16.9178 16.9888C17.0316 16.8781 17.1224 16.7461 17.1851 16.6003C17.2479 16.4546 17.2813 16.2979 17.2835 16.1392V1.85585C17.2813 1.69716 17.2479 1.54046 17.1851 1.39469C17.1224 1.24892 17.0316 1.11693 16.9178 1.00627C16.804 0.895613 16.6696 0.808446 16.5222 0.749749C16.3747 0.691052 16.2171 0.661975 16.0585 0.664179ZM5.7418 14.6142H3.2418V7.11418H5.7418V14.6142ZM4.4918 6.06418C4.14702 6.06418 3.81636 5.92722 3.57256 5.68342C3.32876 5.43962 3.1918 5.10896 3.1918 4.76418C3.1918 4.4194 3.32876 4.08874 3.57256 3.84494C3.81636 3.60114 4.14702 3.46418 4.4918 3.46418C4.67488 3.44342 4.86028 3.46156 5.03586 3.51742C5.21144 3.57327 5.37325 3.66559 5.51068 3.78831C5.64811 3.91104 5.75807 4.06141 5.83336 4.22958C5.90864 4.39775 5.94756 4.57993 5.94756 4.76418C5.94756 4.94843 5.90864 5.13061 5.83336 5.29878C5.75807 5.46695 5.64811 5.61732 5.51068 5.74004C5.37325 5.86277 5.21144 5.95509 5.03586 6.01094C4.86028 6.0668 4.67488 6.08494 4.4918 6.06418ZM14.7585 14.6142H12.2585V10.5892C12.2585 9.58085 11.9001 8.92251 10.9918 8.92251C10.7107 8.92457 10.437 9.01275 10.2075 9.17516C9.97803 9.33757 9.80387 9.56641 9.70846 9.83085C9.64325 10.0267 9.61499 10.233 9.62513 10.4392V14.6058H7.12513V7.10585H9.62513V8.16418C9.85224 7.7701 10.1826 7.44545 10.5805 7.22518C10.9784 7.00492 11.4289 6.89739 11.8835 6.91418C13.5501 6.91418 14.7585 7.98918 14.7585 10.2975V14.6142Z" fill="#004E6B"/>
</svg>
