<svg width="66" height="28" viewBox="0 0 66 28" fill="none" xmlns="http://www.w3.org/2000/svg">
<g clip-path="url(#clip0_3004_7631)">
<path d="M37.7216 0.0406603C37.7216 0.0406603 35.9591 -0.239731 33.5157 1.24234C31.9936 2.16362 31.4328 2.04345 31.1925 1.80312C31.0723 1.60284 30.7919 1.6429 30.7118 1.84318C30.5917 2.12357 30.6718 2.52413 31.553 3.08491C33.2353 4.12636 36.56 4.60703 39.2838 4.16642C42.0076 3.7258 43.3294 3.76586 43.3294 3.76586C43.3294 3.76586 43.6899 3.04485 42.7286 2.52413C41.7672 2.04345 39.0835 -0.0795074 37.7216 0.0406603Z" fill="white"/>
<path d="M19.3355 7.89059C21.9792 6.00797 25.1436 4.56595 28.5484 4.64607C28.7887 4.64607 29.0291 4.64607 29.2694 4.60601C30.1907 4.5259 32.9545 4.60601 36.5195 8.21104C40.8456 12.6172 43.8898 9.21244 44.0901 9.01216C44.2503 8.85193 48.1758 7.08948 51.1399 9.73316C51.18 9.77322 51.18 9.77322 51.22 9.81328C53.1427 11.5357 52.3416 14.7001 49.8181 15.3009C44.8111 16.4225 37.2005 17.3438 29.71 15.2208C26.2652 14.2194 23.3812 13.7788 21.0179 13.6987C18.0137 13.4984 16.8921 9.65305 19.3355 7.89059Z" fill="white"/>
<path d="M7.03906 20.6292C7.03906 20.6292 15.2505 16.3432 28.5491 17.3046C41.8076 18.306 49.4983 20.469 57.2692 17.3046C57.2692 17.3046 53.3837 21.7908 26.3861 20.9096C26.3861 20.9096 8.88163 20.2687 7.03906 20.6292Z" fill="white"/>
<path d="M0.75 24.5927C0.75 24.5927 19.7365 23.4712 26.7062 22.6701C33.6759 21.8689 63.3574 23.9919 65.5204 24.7129C67.6834 25.4339 43.6499 24.9933 37.2009 26.4353C30.7919 27.8773 5.59676 27.1563 0.75 24.5927Z" fill="white"/>
</g>
<defs>
<clipPath id="clip0_3004_7631">
<rect width="64.9306" height="27.1579" fill="white" transform="translate(0.75)"/>
</clipPath>
</defs>
</svg>
